<?xml version="1.0" standalone="no"?>
<!DOCTYPE svg PUBLIC "-//W3C//DTD SVG 20010904//EN"
 "http://www.w3.org/TR/2001/REC-SVG-20010904/DTD/svg10.dtd">
<svg version="1.0" xmlns="http://www.w3.org/2000/svg"
 width="225.000000pt" height="225.000000pt" viewBox="0 0 225.000000 225.000000"
 preserveAspectRatio="xMidYMid meet">
<metadata>
Created by potrace 1.11, written by Peter Selinger 2001-2013
</metadata>
<g transform="translate(0.000000,225.000000) scale(0.100000,-0.100000)"
fill="#000000" stroke="none">
<path d="M800 1119 l0 -581 38 6 c20 3 72 8 114 12 l78 6 2 241 3 241 85 -242
85 -241 75 -6 c41 -3 94 -8 118 -11 l42 -5 0 580 0 581 -115 0 -115 0 -2 -251
-3 -250 -49 138 c-26 76 -66 189 -88 251 l-40 112 -114 0 -114 0 0 -581z"/>
</g>
</svg>
